%TF.GenerationSoftware,KiCad,Pcbnew,7.99.0-2367-gcb54bdfa84*%
%TF.CreationDate,2023-12-26T22:21:42+02:00*%
%TF.ProjectId,speeduino_stm32,73706565-6475-4696-9e6f-5f73746d3332,rev?*%
%TF.SameCoordinates,Original*%
%TF.FileFunction,Paste,Top*%
%TF.FilePolarity,Positive*%
%FSLAX46Y46*%
G04 Gerber Fmt 4.6, Leading zero omitted, Abs format (unit mm)*
G04 Created by KiCad (PCBNEW 7.99.0-2367-gcb54bdfa84) date 2023-12-26 22:21:42*
%MOMM*%
%LPD*%
G01*
G04 APERTURE LIST*
G04 Aperture macros list*
%AMRoundRect*
0 Rectangle with rounded corners*
0 $1 Rounding radius*
0 $2 $3 $4 $5 $6 $7 $8 $9 X,Y pos of 4 corners*
0 Add a 4 corners polygon primitive as box body*
4,1,4,$2,$3,$4,$5,$6,$7,$8,$9,$2,$3,0*
0 Add four circle primitives for the rounded corners*
1,1,$1+$1,$2,$3*
1,1,$1+$1,$4,$5*
1,1,$1+$1,$6,$7*
1,1,$1+$1,$8,$9*
0 Add four rect primitives between the rounded corners*
20,1,$1+$1,$2,$3,$4,$5,0*
20,1,$1+$1,$4,$5,$6,$7,0*
20,1,$1+$1,$6,$7,$8,$9,0*
20,1,$1+$1,$8,$9,$2,$3,0*%
G04 Aperture macros list end*
%ADD10RoundRect,0.250000X-0.450000X0.262500X-0.450000X-0.262500X0.450000X-0.262500X0.450000X0.262500X0*%
%ADD11RoundRect,0.250000X-0.475000X0.250000X-0.475000X-0.250000X0.475000X-0.250000X0.475000X0.250000X0*%
%ADD12RoundRect,0.250000X-0.262500X-0.450000X0.262500X-0.450000X0.262500X0.450000X-0.262500X0.450000X0*%
%ADD13RoundRect,0.250000X0.475000X-0.250000X0.475000X0.250000X-0.475000X0.250000X-0.475000X-0.250000X0*%
%ADD14RoundRect,0.250000X0.262500X0.450000X-0.262500X0.450000X-0.262500X-0.450000X0.262500X-0.450000X0*%
%ADD15RoundRect,0.250000X-0.650000X0.325000X-0.650000X-0.325000X0.650000X-0.325000X0.650000X0.325000X0*%
%ADD16RoundRect,0.250000X0.450000X-0.262500X0.450000X0.262500X-0.450000X0.262500X-0.450000X-0.262500X0*%
%ADD17R,5.250000X4.550000*%
%ADD18R,0.800000X4.600000*%
%ADD19RoundRect,0.150000X-0.825000X-0.150000X0.825000X-0.150000X0.825000X0.150000X-0.825000X0.150000X0*%
%ADD20R,4.550000X5.250000*%
%ADD21R,4.600000X1.100000*%
%ADD22RoundRect,0.150000X-0.150000X0.625000X-0.150000X-0.625000X0.150000X-0.625000X0.150000X0.625000X0*%
%ADD23RoundRect,0.250000X-0.250000X-0.475000X0.250000X-0.475000X0.250000X0.475000X-0.250000X0.475000X0*%
%ADD24RoundRect,0.250000X0.250000X0.475000X-0.250000X0.475000X-0.250000X-0.475000X0.250000X-0.475000X0*%
%ADD25RoundRect,0.150000X-0.587500X-0.150000X0.587500X-0.150000X0.587500X0.150000X-0.587500X0.150000X0*%
%ADD26RoundRect,0.250000X0.650000X-0.325000X0.650000X0.325000X-0.650000X0.325000X-0.650000X-0.325000X0*%
%ADD27R,5.400000X2.900000*%
%ADD28RoundRect,0.150000X0.150000X-0.512500X0.150000X0.512500X-0.150000X0.512500X-0.150000X-0.512500X0*%
%ADD29R,2.700000X1.500000*%
%ADD30RoundRect,0.150000X0.587500X0.150000X-0.587500X0.150000X-0.587500X-0.150000X0.587500X-0.150000X0*%
%ADD31RoundRect,0.250000X-0.625000X0.312500X-0.625000X-0.312500X0.625000X-0.312500X0.625000X0.312500X0*%
%ADD32RoundRect,0.150000X0.150000X-0.875000X0.150000X0.875000X-0.150000X0.875000X-0.150000X-0.875000X0*%
%ADD33R,1.500000X2.600000*%
G04 APERTURE END LIST*
D10*
%TO.C,R50*%
X91694000Y-76557500D03*
X91694000Y-78382500D03*
%TD*%
D11*
%TO.C,C5*%
X62230000Y-103698000D03*
X62230000Y-105598000D03*
%TD*%
D12*
%TO.C,R21*%
X53189500Y-92202000D03*
X55014500Y-92202000D03*
%TD*%
%TO.C,R2*%
X32361500Y-85344000D03*
X34186500Y-85344000D03*
%TD*%
D13*
%TO.C,C38*%
X44196000Y-83754000D03*
X44196000Y-81854000D03*
%TD*%
D10*
%TO.C,R51*%
X91694000Y-73001500D03*
X91694000Y-74826500D03*
%TD*%
%TO.C,R36*%
X91459000Y-86463500D03*
X91459000Y-88288500D03*
%TD*%
D11*
%TO.C,C31*%
X81534000Y-72964000D03*
X81534000Y-74864000D03*
%TD*%
D10*
%TO.C,R46*%
X105664000Y-76557500D03*
X105664000Y-78382500D03*
%TD*%
D12*
%TO.C,R4*%
X60198000Y-110998000D03*
X62023000Y-110998000D03*
%TD*%
D11*
%TO.C,C9*%
X67818000Y-101920000D03*
X67818000Y-103820000D03*
%TD*%
D12*
%TO.C,R88*%
X35282500Y-39619000D03*
X37107500Y-39619000D03*
%TD*%
D13*
%TO.C,C40*%
X28448000Y-103566000D03*
X28448000Y-101666000D03*
%TD*%
D14*
%TO.C,R9*%
X71778500Y-113284000D03*
X69953500Y-113284000D03*
%TD*%
D15*
%TO.C,D5*%
X46990000Y-94996000D03*
X46990000Y-97946000D03*
%TD*%
D16*
%TO.C,R18*%
X56134000Y-105560500D03*
X56134000Y-103735500D03*
%TD*%
D11*
%TO.C,C8*%
X65786000Y-101920000D03*
X65786000Y-103820000D03*
%TD*%
%TO.C,C4*%
X60198000Y-103698000D03*
X60198000Y-105598000D03*
%TD*%
D17*
%TO.C,Q8*%
X99568000Y-62296000D03*
X105118000Y-62296000D03*
X99568000Y-57446000D03*
X105118000Y-57446000D03*
D18*
X98533000Y-69021000D03*
X99803000Y-69021000D03*
X101073000Y-69021000D03*
X102343000Y-69021000D03*
X103613000Y-69021000D03*
X104883000Y-69021000D03*
X106153000Y-69021000D03*
%TD*%
D16*
%TO.C,R28*%
X113538000Y-88288500D03*
X113538000Y-86463500D03*
%TD*%
D14*
%TO.C,R15*%
X58570500Y-94234000D03*
X56745500Y-94234000D03*
%TD*%
D16*
%TO.C,R89*%
X51943000Y-32662500D03*
X51943000Y-30837500D03*
%TD*%
D19*
%TO.C,U6*%
X62295000Y-77470000D03*
X62295000Y-78740000D03*
X62295000Y-80010000D03*
X62295000Y-81280000D03*
X62295000Y-82550000D03*
X62295000Y-83820000D03*
X62295000Y-85090000D03*
X67245000Y-85090000D03*
X67245000Y-83820000D03*
X67245000Y-82550000D03*
X67245000Y-81280000D03*
X67245000Y-80010000D03*
X67245000Y-78740000D03*
X67245000Y-77470000D03*
%TD*%
D16*
%TO.C,R49*%
X99568000Y-74826500D03*
X99568000Y-73001500D03*
%TD*%
D14*
%TO.C,R16*%
X55014500Y-94234000D03*
X53189500Y-94234000D03*
%TD*%
D11*
%TO.C,C24*%
X117602000Y-76520000D03*
X117602000Y-78420000D03*
%TD*%
D19*
%TO.C,U3*%
X31053000Y-100711000D03*
X31053000Y-101981000D03*
X31053000Y-103251000D03*
X31053000Y-104521000D03*
X36003000Y-104521000D03*
X36003000Y-103251000D03*
X36003000Y-101981000D03*
X36003000Y-100711000D03*
%TD*%
D20*
%TO.C,U5*%
X104836000Y-30499000D03*
X104836000Y-36049000D03*
X109686000Y-30499000D03*
X109686000Y-36049000D03*
D21*
X98111000Y-29874000D03*
X98111000Y-31574000D03*
X98111000Y-33274000D03*
X98111000Y-34974000D03*
X98111000Y-36674000D03*
%TD*%
D17*
%TO.C,Q9*%
X87649000Y-62296000D03*
X93199000Y-62296000D03*
X87649000Y-57446000D03*
X93199000Y-57446000D03*
D18*
X86614000Y-69021000D03*
X87884000Y-69021000D03*
X89154000Y-69021000D03*
X90424000Y-69021000D03*
X91694000Y-69021000D03*
X92964000Y-69021000D03*
X94234000Y-69021000D03*
%TD*%
D12*
%TO.C,R8*%
X65889500Y-109220000D03*
X67714500Y-109220000D03*
%TD*%
D10*
%TO.C,R14*%
X61468000Y-96369500D03*
X61468000Y-98194500D03*
%TD*%
D14*
%TO.C,R24*%
X33170500Y-81788000D03*
X31345500Y-81788000D03*
%TD*%
D16*
%TO.C,R34*%
X89427000Y-84732500D03*
X89427000Y-82907500D03*
%TD*%
D13*
%TO.C,C19*%
X99568000Y-88326000D03*
X99568000Y-86426000D03*
%TD*%
D10*
%TO.C,R32*%
X103651000Y-86463500D03*
X103651000Y-88288500D03*
%TD*%
D22*
%TO.C,U4*%
X57531000Y-96385000D03*
X56261000Y-96385000D03*
X54991000Y-96385000D03*
X53721000Y-96385000D03*
X53721000Y-101735000D03*
X54991000Y-101735000D03*
X56261000Y-101735000D03*
X57531000Y-101735000D03*
%TD*%
D10*
%TO.C,R23*%
X98044000Y-39727500D03*
X98044000Y-41552500D03*
%TD*%
%TO.C,R37*%
X93491000Y-86463500D03*
X93491000Y-88288500D03*
%TD*%
D23*
%TO.C,C13*%
X73472000Y-109220000D03*
X75372000Y-109220000D03*
%TD*%
D13*
%TO.C,C23*%
X75457000Y-88326000D03*
X75457000Y-86426000D03*
%TD*%
%TO.C,C20*%
X87395000Y-84770000D03*
X87395000Y-82870000D03*
%TD*%
D24*
%TO.C,C42*%
X56830000Y-107696000D03*
X54930000Y-107696000D03*
%TD*%
D11*
%TO.C,C29*%
X93726000Y-72964000D03*
X93726000Y-74864000D03*
%TD*%
D16*
%TO.C,R76*%
X59944000Y-84351500D03*
X59944000Y-82526500D03*
%TD*%
%TO.C,R39*%
X77489000Y-88288500D03*
X77489000Y-86463500D03*
%TD*%
D17*
%TO.C,Q6*%
X81534000Y-98994000D03*
X75984000Y-98994000D03*
X81534000Y-103844000D03*
X75984000Y-103844000D03*
D18*
X82569000Y-92269000D03*
X81299000Y-92269000D03*
X80029000Y-92269000D03*
X78759000Y-92269000D03*
X77489000Y-92269000D03*
X76219000Y-92269000D03*
X74949000Y-92269000D03*
%TD*%
D25*
%TO.C,Q13*%
X37924500Y-28641000D03*
X37924500Y-30541000D03*
X39799500Y-29591000D03*
%TD*%
D23*
%TO.C,C41*%
X65344000Y-75438000D03*
X67244000Y-75438000D03*
%TD*%
D26*
%TO.C,D6*%
X46990000Y-102616000D03*
X46990000Y-99666000D03*
%TD*%
D23*
%TO.C,C3*%
X41468000Y-100076000D03*
X43368000Y-100076000D03*
%TD*%
D12*
%TO.C,R25*%
X34901500Y-81788000D03*
X36726500Y-81788000D03*
%TD*%
D17*
%TO.C,Q5*%
X93472000Y-98994000D03*
X87922000Y-98994000D03*
X93472000Y-103844000D03*
X87922000Y-103844000D03*
D18*
X94507000Y-92269000D03*
X93237000Y-92269000D03*
X91967000Y-92269000D03*
X90697000Y-92269000D03*
X89427000Y-92269000D03*
X88157000Y-92269000D03*
X86887000Y-92269000D03*
%TD*%
D10*
%TO.C,R33*%
X105683000Y-86463500D03*
X105683000Y-88288500D03*
%TD*%
D16*
%TO.C,R53*%
X87630000Y-74826500D03*
X87630000Y-73001500D03*
%TD*%
D12*
%TO.C,R74*%
X58142500Y-78105000D03*
X59967500Y-78105000D03*
%TD*%
D16*
%TO.C,R52*%
X89662000Y-74826500D03*
X89662000Y-73001500D03*
%TD*%
%TO.C,R44*%
X113538000Y-74826500D03*
X113538000Y-73001500D03*
%TD*%
D12*
%TO.C,R22*%
X84812500Y-41783000D03*
X86637500Y-41783000D03*
%TD*%
%TO.C,R77*%
X35941000Y-59690000D03*
X37766000Y-59690000D03*
%TD*%
D11*
%TO.C,C25*%
X117602000Y-72964000D03*
X117602000Y-74864000D03*
%TD*%
D12*
%TO.C,R78*%
X35917500Y-57150000D03*
X37742500Y-57150000D03*
%TD*%
%TO.C,R20*%
X49379500Y-104902000D03*
X51204500Y-104902000D03*
%TD*%
D10*
%TO.C,R54*%
X79502000Y-76557500D03*
X79502000Y-78382500D03*
%TD*%
D13*
%TO.C,C16*%
X111506000Y-88326000D03*
X111506000Y-86426000D03*
%TD*%
%TO.C,C10*%
X65786000Y-107376000D03*
X65786000Y-105476000D03*
%TD*%
D11*
%TO.C,C26*%
X103632000Y-76520000D03*
X103632000Y-78420000D03*
%TD*%
D27*
%TO.C,L1*%
X86106000Y-28832000D03*
X86106000Y-38732000D03*
%TD*%
D11*
%TO.C,C14*%
X51308000Y-94996000D03*
X51308000Y-96896000D03*
%TD*%
D10*
%TO.C,R12*%
X49276000Y-94996000D03*
X49276000Y-96821000D03*
%TD*%
D23*
%TO.C,C2*%
X41468000Y-102108000D03*
X43368000Y-102108000D03*
%TD*%
D16*
%TO.C,R90*%
X50038000Y-32662500D03*
X50038000Y-30837500D03*
%TD*%
D12*
%TO.C,R75*%
X58142500Y-80010000D03*
X59967500Y-80010000D03*
%TD*%
D28*
%TO.C,D2*%
X65090000Y-94609500D03*
X66040000Y-94609500D03*
X66990000Y-94609500D03*
X66990000Y-92334500D03*
X65090000Y-92334500D03*
%TD*%
D13*
%TO.C,C22*%
X77621000Y-84806000D03*
X77621000Y-82906000D03*
%TD*%
D16*
%TO.C,R45*%
X111506000Y-74826500D03*
X111506000Y-73001500D03*
%TD*%
D13*
%TO.C,C32*%
X34798000Y-80056000D03*
X34798000Y-78156000D03*
%TD*%
%TO.C,C34*%
X36830000Y-80056000D03*
X36830000Y-78156000D03*
%TD*%
D12*
%TO.C,R5*%
X65889500Y-100076000D03*
X67714500Y-100076000D03*
%TD*%
%TO.C,R6*%
X65889500Y-98044000D03*
X67714500Y-98044000D03*
%TD*%
D10*
%TO.C,R1*%
X96012000Y-39727500D03*
X96012000Y-41552500D03*
%TD*%
%TO.C,R41*%
X81553000Y-86463500D03*
X81553000Y-88288500D03*
%TD*%
D16*
%TO.C,R56*%
X77470000Y-74826500D03*
X77470000Y-73001500D03*
%TD*%
%TO.C,R91*%
X35814000Y-30503500D03*
X35814000Y-28678500D03*
%TD*%
%TO.C,R73*%
X58039000Y-84351500D03*
X58039000Y-82526500D03*
%TD*%
D17*
%TO.C,Q3*%
X117348000Y-98994000D03*
X111798000Y-98994000D03*
X117348000Y-103844000D03*
X111798000Y-103844000D03*
D18*
X118383000Y-92269000D03*
X117113000Y-92269000D03*
X115843000Y-92269000D03*
X114573000Y-92269000D03*
X113303000Y-92269000D03*
X112033000Y-92269000D03*
X110763000Y-92269000D03*
%TD*%
D11*
%TO.C,C27*%
X103632000Y-72964000D03*
X103632000Y-74864000D03*
%TD*%
D10*
%TO.C,R43*%
X115570000Y-73001500D03*
X115570000Y-74826500D03*
%TD*%
D16*
%TO.C,R57*%
X75438000Y-74826500D03*
X75438000Y-73001500D03*
%TD*%
D23*
%TO.C,C12*%
X73472000Y-111252000D03*
X75372000Y-111252000D03*
%TD*%
D14*
%TO.C,R10*%
X75334500Y-113284000D03*
X73509500Y-113284000D03*
%TD*%
D10*
%TO.C,R26*%
X115608000Y-86463500D03*
X115608000Y-88288500D03*
%TD*%
D13*
%TO.C,C11*%
X67818000Y-107376000D03*
X67818000Y-105476000D03*
%TD*%
D12*
%TO.C,R3*%
X60301500Y-101854000D03*
X62126500Y-101854000D03*
%TD*%
D13*
%TO.C,C18*%
X99568000Y-84770000D03*
X99568000Y-82870000D03*
%TD*%
D16*
%TO.C,R38*%
X75457000Y-84732500D03*
X75457000Y-82907500D03*
%TD*%
D10*
%TO.C,R19*%
X54102000Y-103735500D03*
X54102000Y-105560500D03*
%TD*%
D17*
%TO.C,Q7*%
X111525000Y-62296000D03*
X117075000Y-62296000D03*
X111525000Y-57446000D03*
X117075000Y-57446000D03*
D18*
X110490000Y-69021000D03*
X111760000Y-69021000D03*
X113030000Y-69021000D03*
X114300000Y-69021000D03*
X115570000Y-69021000D03*
X116840000Y-69021000D03*
X118110000Y-69021000D03*
%TD*%
D13*
%TO.C,C6*%
X60198000Y-109154000D03*
X60198000Y-107254000D03*
%TD*%
D14*
%TO.C,R58*%
X63650500Y-75438000D03*
X61825500Y-75438000D03*
%TD*%
D29*
%TO.C,D1*%
X76454000Y-31382000D03*
X76454000Y-36182000D03*
%TD*%
D13*
%TO.C,C17*%
X111506000Y-84770000D03*
X111506000Y-82870000D03*
%TD*%
D16*
%TO.C,R13*%
X59436000Y-98194500D03*
X59436000Y-96369500D03*
%TD*%
%TO.C,R48*%
X101600000Y-74826500D03*
X101600000Y-73001500D03*
%TD*%
D30*
%TO.C,Q12*%
X43736500Y-30541000D03*
X43736500Y-28641000D03*
X41861499Y-29591000D03*
%TD*%
D12*
%TO.C,R7*%
X65889500Y-111252000D03*
X67714500Y-111252000D03*
%TD*%
D31*
%TO.C,R87*%
X29972000Y-108519500D03*
X29972000Y-111444500D03*
%TD*%
D10*
%TO.C,R42*%
X115570000Y-76557500D03*
X115570000Y-78382500D03*
%TD*%
D16*
%TO.C,R35*%
X89427000Y-88288500D03*
X89427000Y-86463500D03*
%TD*%
D24*
%TO.C,C48*%
X37144999Y-42159000D03*
X35245001Y-42159000D03*
%TD*%
D16*
%TO.C,R29*%
X113538000Y-84732500D03*
X113538000Y-82907500D03*
%TD*%
%TO.C,R17*%
X49276000Y-102616000D03*
X49276000Y-100791000D03*
%TD*%
D11*
%TO.C,C28*%
X93726000Y-76520000D03*
X93726000Y-78420000D03*
%TD*%
D17*
%TO.C,Q4*%
X105410000Y-98994000D03*
X99860000Y-98994000D03*
X105410000Y-103844000D03*
X99860000Y-103844000D03*
D18*
X106445000Y-92269000D03*
X105175000Y-92269000D03*
X103905000Y-92269000D03*
X102635000Y-92269000D03*
X101365000Y-92269000D03*
X100095000Y-92269000D03*
X98825000Y-92269000D03*
%TD*%
D14*
%TO.C,R92*%
X39878000Y-105410000D03*
X38053000Y-105410000D03*
%TD*%
D32*
%TO.C,U2*%
X32512000Y-97360000D03*
X33782000Y-97360000D03*
X35052000Y-97360000D03*
X36322000Y-97360000D03*
X37592000Y-97360000D03*
X38862000Y-97360000D03*
X40132000Y-97360000D03*
X41402000Y-97360000D03*
X42672000Y-97360000D03*
X42672000Y-88060000D03*
X41402000Y-88060000D03*
X40132000Y-88060000D03*
X38862000Y-88060000D03*
X37592000Y-88060000D03*
X36322000Y-88060000D03*
X35052000Y-88060000D03*
X33782000Y-88060000D03*
X32512000Y-88060000D03*
%TD*%
D10*
%TO.C,R55*%
X79502000Y-73001500D03*
X79502000Y-74826500D03*
%TD*%
D16*
%TO.C,R30*%
X101600000Y-84732500D03*
X101600000Y-82907500D03*
%TD*%
D10*
%TO.C,R47*%
X105664000Y-73001500D03*
X105664000Y-74826500D03*
%TD*%
D11*
%TO.C,C30*%
X81534000Y-76520000D03*
X81534000Y-78420000D03*
%TD*%
D16*
%TO.C,R31*%
X101600000Y-88288500D03*
X101600000Y-86463500D03*
%TD*%
D10*
%TO.C,R27*%
X117640000Y-86463500D03*
X117640000Y-88288500D03*
%TD*%
D17*
%TO.C,Q10*%
X75711000Y-62296000D03*
X81261000Y-62296000D03*
X75711000Y-57446000D03*
X81261000Y-57446000D03*
D18*
X74676000Y-69021000D03*
X75946000Y-69021000D03*
X77216000Y-69021000D03*
X78486000Y-69021000D03*
X79756000Y-69021000D03*
X81026000Y-69021000D03*
X82296000Y-69021000D03*
%TD*%
D10*
%TO.C,R11*%
X71628000Y-109577500D03*
X71628000Y-111402500D03*
%TD*%
%TO.C,R40*%
X79521000Y-86463500D03*
X79521000Y-88288500D03*
%TD*%
D13*
%TO.C,C7*%
X62230000Y-109154000D03*
X62230000Y-107254000D03*
%TD*%
%TO.C,C15*%
X51308000Y-102616000D03*
X51308000Y-100716000D03*
%TD*%
%TO.C,C21*%
X87395000Y-88326000D03*
X87395000Y-86426000D03*
%TD*%
D33*
%TO.C,D4*%
X46633000Y-28067000D03*
X49633000Y-28067000D03*
%TD*%
M02*
