M48
; DRILL file {KiCad 7.99.0-2367-gcb54bdfa84} date 2023-12-26T22:21:42+0200
; FORMAT={-:-/ absolute / inch / decimal}
; #@! TF.CreationDate,2023-12-26T22:21:42+02:00
; #@! TF.GenerationSoftware,Kicad,Pcbnew,7.99.0-2367-gcb54bdfa84
; #@! TF.FileFunction,Plated,1,4,PTH
FMAT,2
INCH
; #@! TA.AperFunction,Plated,PTH,ViaDrill
T1C0.0157
; #@! TA.AperFunction,Plated,PTH,ComponentDrill
T2C0.0300
; #@! TA.AperFunction,Plated,PTH,ComponentDrill
T3C0.0315
; #@! TA.AperFunction,Plated,PTH,ComponentDrill
T4C0.0394
; #@! TA.AperFunction,Plated,PTH,ComponentDrill
T5C0.0472
%
G90
G05
T1
X1.06Y-1.34
X1.065Y-4.3
X1.07Y-4.06
X1.07Y-4.625
X1.1402Y-1.6598
X1.16Y-4.01
X1.175Y-2.885
X1.18Y-4.44
X1.23Y-1.265
X1.2431Y-3.4669
X1.25Y-4.67
X1.285Y-4.84
X1.345Y-1.085
X1.37Y-3.28
X1.39Y-3.4
X1.41Y-1.235
X1.45Y-3.29
X1.495Y-4.065
X1.505Y-4.015
X1.53Y-1.205
X1.58Y-3.54
X1.66Y-4.1165
X1.67Y-4.07
X1.68Y-1.205
X1.71Y-3.89
X1.775Y-1.575
X1.81Y-3.53
X1.915Y-1.82
X1.97Y-2.685
X1.975Y-1.98
X1.975Y-3.075
X1.995Y-1.82
X2.06Y-3.7
X2.06Y-4.13
X2.075Y-1.82
X2.08Y-3.15
X2.0927Y-3.2477
X2.105Y-1.425
X2.115Y-3.855
X2.15Y-4.2
X2.28Y-3.87
X2.32Y-3.47
X2.34Y-3.72
X2.36Y-2.97
X2.3686Y-1.6714
X2.37Y-1.135
X2.42Y-4.19
X2.44Y-2.755
X2.5087Y-4.2387
X2.51Y-1.97
X2.51Y-3.3
X2.51Y-3.35
X2.53Y-3.68
X2.61Y-3.8
X2.6326Y-4.1174
X2.67Y-1.76
X2.6813Y-3.7687
X2.71Y-4.38
X2.72Y-3.1
X2.72Y-3.15
X2.72Y-3.2
X2.72Y-3.25
X2.72Y-3.3
X2.72Y-3.35
X2.73Y-4.23
X2.75Y-4.32
X2.76Y-1.155
X2.76Y-4.52
X2.77Y-3.47
X2.775Y-2.025
X2.8Y-3.33
X2.805Y-2.595
X2.82Y-4.19
X2.8722Y-1.5622
X2.91Y-3.42
X2.91Y-3.56
X2.91Y-3.59
X2.91Y-3.62
X2.9674Y-4.3426
X2.97Y-3.0
X3.03Y-3.0
X3.09Y-2.32
X3.09Y-2.35
X3.09Y-2.38
X3.1431Y-3.33
X3.21Y-3.26
X3.27Y-3.1
X3.28Y-2.73
X3.28Y-2.76
X3.28Y-2.79
X3.375Y-4.4938
X3.38Y-3.39
X3.39Y-3.55
X3.39Y-3.58
X3.39Y-3.61
X3.39Y-3.835
X3.39Y-3.865
X3.39Y-3.895
X3.44Y-3.03
X3.5069Y-3.0
X3.575Y-1.37
X3.595Y-2.32
X3.595Y-2.35
X3.595Y-2.38
X3.6131Y-3.33
X3.68Y-3.26
X3.742Y-3.107
X3.75Y-2.73
X3.75Y-2.76
X3.75Y-2.79
X3.85Y-3.55
X3.85Y-3.58
X3.85Y-3.61
X3.87Y-3.35
X3.88Y-1.1
X3.9Y-1.08
X3.91Y-3.01
X3.92Y-1.06
X3.9669Y-3.02
X3.98Y-4.0
X4.01Y-4.0
X4.02Y-2.29
X4.02Y-2.32
X4.02Y-2.35
X4.04Y-4.0
X4.09Y-3.34
X4.16Y-3.34
X4.2112Y-3.09
X4.22Y-2.73
X4.22Y-2.76
X4.22Y-2.79
X4.32Y-3.57
X4.32Y-3.6
X4.32Y-3.63
X4.3379Y-3.47
X4.39Y-3.05
X4.4169Y-3.01
X4.47Y-4.04
X4.49Y-4.02
X4.5Y-2.29
X4.5Y-2.32
X4.5Y-2.35
X4.51Y-4.0
X4.56Y-3.35
X4.57Y-1.11
X4.585Y-4.83
X4.63Y-3.28
X4.63Y-4.705
X4.665Y-1.29
X4.69Y-2.73
X4.69Y-2.76
X4.69Y-2.79
X4.69Y-2.98
X4.82Y-3.785
X4.825Y-4.59
X4.83Y-1.39
T2
X1.58Y-1.4116
X1.58Y-1.5116
X1.58Y-1.6116
X1.58Y-1.7116
X1.58Y-1.8116
X1.58Y-1.9116
X1.58Y-2.0116
X1.58Y-2.1116
X1.58Y-2.2116
X1.58Y-2.3116
X1.58Y-2.4116
X1.58Y-2.5116
X1.58Y-2.6116
X1.58Y-2.7116
X1.58Y-2.8116
X1.58Y-2.9116
X1.58Y-3.0116
X1.58Y-3.1116
X1.58Y-3.2116
X1.58Y-3.3116
X2.18Y-1.4116
X2.18Y-1.5116
X2.18Y-1.6116
X2.18Y-1.7116
X2.18Y-1.8116
X2.18Y-1.9116
X2.18Y-2.0116
X2.18Y-2.1116
X2.18Y-2.2116
X2.18Y-2.3116
X2.18Y-2.4116
X2.18Y-2.5116
X2.18Y-2.6116
X2.18Y-2.7116
X2.18Y-2.8116
X2.18Y-2.9116
X2.18Y-3.0116
X2.18Y-3.1116
X2.18Y-3.2116
X2.18Y-3.3116
T3
X1.13Y-3.5535
X1.13Y-3.7465
T4
X1.21Y-1.95
X1.21Y-2.05
X1.21Y-2.15
X1.21Y-2.25
X1.21Y-2.35
X1.285Y-1.5598
X1.285Y-1.6598
X1.31Y-1.95
X1.31Y-2.05
X1.31Y-2.15
X1.31Y-2.25
X1.31Y-2.35
X1.3796Y-4.2898
X1.3796Y-4.3898
X1.4796Y-4.2898
X1.4796Y-4.3898
X1.5796Y-4.2898
X1.5796Y-4.3898
X1.6796Y-4.2898
X1.6796Y-4.3898
X2.3951Y-1.1474
X2.7101Y-1.1474
X3.79Y-4.3
X3.79Y-4.4
X3.89Y-4.3
X3.89Y-4.4
X3.99Y-4.3
X3.99Y-4.4
T5
X1.6063Y-4.5562
X1.6063Y-4.6743
X1.7047Y-4.5562
X1.7047Y-4.6743
X1.8031Y-4.5562
X1.8031Y-4.6743
X1.9016Y-4.5562
X1.9016Y-4.6743
X2.0Y-4.5562
X2.0Y-4.6743
X2.0984Y-4.5562
X2.0984Y-4.6743
X2.1969Y-4.5562
X2.1969Y-4.6743
X2.2953Y-4.5562
X2.2953Y-4.6743
X2.3937Y-4.5562
X2.3937Y-4.6743
X2.9685Y-1.89
X3.1654Y-1.89
X3.3463Y-4.5562
X3.3463Y-4.6743
X3.4447Y-4.5562
X3.4447Y-4.6743
X3.4985Y-1.89
X3.5431Y-4.5562
X3.5431Y-4.6743
X3.6416Y-4.5562
X3.6416Y-4.6743
X3.6954Y-1.89
X3.74Y-4.5562
X3.74Y-4.6743
X3.8384Y-4.5562
X3.8384Y-4.6743
X3.9369Y-4.5562
X3.9369Y-4.6743
X4.0285Y-1.89
X4.0353Y-4.5562
X4.0353Y-4.6743
X4.1337Y-4.5562
X4.1337Y-4.6743
X4.2254Y-1.89
X4.5485Y-1.89
X4.7454Y-1.89
T0
M30
