%TF.GenerationSoftware,KiCad,Pcbnew,7.99.0-2367-gcb54bdfa84*%
%TF.CreationDate,2023-12-26T22:21:42+02:00*%
%TF.ProjectId,speeduino_stm32,73706565-6475-4696-9e6f-5f73746d3332,rev?*%
%TF.SameCoordinates,Original*%
%TF.FileFunction,Soldermask,Bot*%
%TF.FilePolarity,Negative*%
%FSLAX46Y46*%
G04 Gerber Fmt 4.6, Leading zero omitted, Abs format (unit mm)*
G04 Created by KiCad (PCBNEW 7.99.0-2367-gcb54bdfa84) date 2023-12-26 22:21:42*
%MOMM*%
%LPD*%
G01*
G04 APERTURE LIST*
G04 Aperture macros list*
%AMRoundRect*
0 Rectangle with rounded corners*
0 $1 Rounding radius*
0 $2 $3 $4 $5 $6 $7 $8 $9 X,Y pos of 4 corners*
0 Add a 4 corners polygon primitive as box body*
4,1,4,$2,$3,$4,$5,$6,$7,$8,$9,$2,$3,0*
0 Add four circle primitives for the rounded corners*
1,1,$1+$1,$2,$3*
1,1,$1+$1,$4,$5*
1,1,$1+$1,$6,$7*
1,1,$1+$1,$8,$9*
0 Add four rect primitives between the rounded corners*
20,1,$1+$1,$2,$3,$4,$5,0*
20,1,$1+$1,$4,$5,$6,$7,0*
20,1,$1+$1,$6,$7,$8,$9,0*
20,1,$1+$1,$8,$9,$2,$3,0*%
G04 Aperture macros list end*
%ADD10C,1.000000*%
%ADD11C,0.010000*%
%ADD12R,1.700000X1.700000*%
%ADD13O,1.700000X1.700000*%
%ADD14R,2.400000X2.400000*%
%ADD15C,2.400000*%
%ADD16C,1.800000*%
%ADD17C,1.524000*%
%ADD18C,1.500000*%
%ADD19RoundRect,0.250000X0.312500X0.625000X-0.312500X0.625000X-0.312500X-0.625000X0.312500X-0.625000X0*%
%ADD20RoundRect,0.250000X0.503814X0.132583X0.132583X0.503814X-0.503814X-0.132583X-0.132583X-0.503814X0*%
%ADD21RoundRect,0.250000X-0.450000X0.262500X-0.450000X-0.262500X0.450000X-0.262500X0.450000X0.262500X0*%
%ADD22RoundRect,0.250000X0.450000X-0.262500X0.450000X0.262500X-0.450000X0.262500X-0.450000X-0.262500X0*%
%ADD23RoundRect,0.102000X0.400000X-1.400000X0.400000X1.400000X-0.400000X1.400000X-0.400000X-1.400000X0*%
%ADD24RoundRect,0.250000X0.475000X-0.250000X0.475000X0.250000X-0.475000X0.250000X-0.475000X-0.250000X0*%
%ADD25RoundRect,0.250000X-0.475000X0.250000X-0.475000X-0.250000X0.475000X-0.250000X0.475000X0.250000X0*%
%ADD26RoundRect,0.250000X0.159099X-0.512652X0.512652X-0.159099X-0.159099X0.512652X-0.512652X0.159099X0*%
%ADD27RoundRect,0.100000X0.100000X-0.712500X0.100000X0.712500X-0.100000X0.712500X-0.100000X-0.712500X0*%
%ADD28RoundRect,0.250000X0.625000X-0.312500X0.625000X0.312500X-0.625000X0.312500X-0.625000X-0.312500X0*%
%ADD29RoundRect,0.100000X-0.100000X0.712500X-0.100000X-0.712500X0.100000X-0.712500X0.100000X0.712500X0*%
%ADD30R,0.700000X1.600000*%
%ADD31R,1.200000X1.600000*%
%ADD32R,1.600000X1.400000*%
%ADD33RoundRect,0.250000X-0.250000X-0.475000X0.250000X-0.475000X0.250000X0.475000X-0.250000X0.475000X0*%
%ADD34RoundRect,0.250000X0.262500X0.450000X-0.262500X0.450000X-0.262500X-0.450000X0.262500X-0.450000X0*%
%ADD35R,1.200000X0.400000*%
%ADD36RoundRect,0.102000X1.400000X0.400000X-1.400000X0.400000X-1.400000X-0.400000X1.400000X-0.400000X0*%
%ADD37RoundRect,0.250000X-0.625000X0.312500X-0.625000X-0.312500X0.625000X-0.312500X0.625000X0.312500X0*%
G04 APERTURE END LIST*
D10*
X94234000Y-113919000D02*
X99441000Y-113919000D01*
X92837000Y-107061000D02*
X92837000Y-112649000D01*
X92964000Y-112649000D02*
X94234000Y-113919000D01*
D11*
%TO.C,Q1*%
X97937000Y-94908000D02*
X97237000Y-94908000D01*
X97237000Y-97608000D01*
X97737000Y-97608000D01*
X97737000Y-101508000D01*
X87837000Y-101508000D01*
X87837000Y-97608000D01*
X88337000Y-97608000D01*
X88337000Y-94908000D01*
X87637000Y-94908000D01*
X87637000Y-93308000D01*
X97937000Y-93308000D01*
X97937000Y-94908000D01*
G36*
X97937000Y-94908000D02*
G01*
X97237000Y-94908000D01*
X97237000Y-97608000D01*
X97737000Y-97608000D01*
X97737000Y-101508000D01*
X87837000Y-101508000D01*
X87837000Y-97608000D01*
X88337000Y-97608000D01*
X88337000Y-94908000D01*
X87637000Y-94908000D01*
X87637000Y-93308000D01*
X97937000Y-93308000D01*
X97937000Y-94908000D01*
G37*
X96287000Y-106808000D02*
X95287000Y-106808000D01*
X95287000Y-104808000D01*
X95087000Y-104808000D01*
X95087000Y-106808000D01*
X94087000Y-106808000D01*
X94087000Y-104808000D01*
X93887000Y-104808000D01*
X93887000Y-106808000D01*
X92887000Y-106808000D01*
X92887000Y-104808000D01*
X92687000Y-104808000D01*
X92687000Y-106808000D01*
X91687000Y-106808000D01*
X91687000Y-104808000D01*
X91487000Y-104808000D01*
X91487000Y-106808000D01*
X90487000Y-106808000D01*
X90487000Y-104808000D01*
X90287000Y-104808000D01*
X90287000Y-106808000D01*
X89287000Y-106808000D01*
X89287000Y-104808000D01*
X89087000Y-104808000D01*
X89087000Y-106808000D01*
X88087000Y-106808000D01*
X88087000Y-103808000D01*
X96287000Y-103808000D01*
X96287000Y-106808000D01*
G36*
X96287000Y-106808000D02*
G01*
X95287000Y-106808000D01*
X95287000Y-104808000D01*
X95087000Y-104808000D01*
X95087000Y-106808000D01*
X94087000Y-106808000D01*
X94087000Y-104808000D01*
X93887000Y-104808000D01*
X93887000Y-106808000D01*
X92887000Y-106808000D01*
X92887000Y-104808000D01*
X92687000Y-104808000D01*
X92687000Y-106808000D01*
X91687000Y-106808000D01*
X91687000Y-104808000D01*
X91487000Y-104808000D01*
X91487000Y-106808000D01*
X90487000Y-106808000D01*
X90487000Y-104808000D01*
X90287000Y-104808000D01*
X90287000Y-106808000D01*
X89287000Y-106808000D01*
X89287000Y-104808000D01*
X89087000Y-104808000D01*
X89087000Y-106808000D01*
X88087000Y-106808000D01*
X88087000Y-103808000D01*
X96287000Y-103808000D01*
X96287000Y-106808000D01*
G37*
%TO.C,Q2*%
X108624000Y-104947000D02*
X111324000Y-104947000D01*
X111324000Y-104447000D01*
X115224000Y-104447000D01*
X115224000Y-114347000D01*
X111324000Y-114347000D01*
X111324000Y-113847000D01*
X108624000Y-113847000D01*
X108624000Y-114547000D01*
X107024000Y-114547000D01*
X107024000Y-104247000D01*
X108624000Y-104247000D01*
X108624000Y-104947000D01*
G36*
X108624000Y-104947000D02*
G01*
X111324000Y-104947000D01*
X111324000Y-104447000D01*
X115224000Y-104447000D01*
X115224000Y-114347000D01*
X111324000Y-114347000D01*
X111324000Y-113847000D01*
X108624000Y-113847000D01*
X108624000Y-114547000D01*
X107024000Y-114547000D01*
X107024000Y-104247000D01*
X108624000Y-104247000D01*
X108624000Y-104947000D01*
G37*
X120524000Y-106897000D02*
X118524000Y-106897000D01*
X118524000Y-107097000D01*
X120524000Y-107097000D01*
X120524000Y-108097000D01*
X118524000Y-108097000D01*
X118524000Y-108297000D01*
X120524000Y-108297000D01*
X120524000Y-109297000D01*
X118524000Y-109297000D01*
X118524000Y-109497000D01*
X120524000Y-109497000D01*
X120524000Y-110497000D01*
X118524000Y-110497000D01*
X118524000Y-110697000D01*
X120524000Y-110697000D01*
X120524000Y-111697000D01*
X118524000Y-111697000D01*
X118524000Y-111897000D01*
X120524000Y-111897000D01*
X120524000Y-112897000D01*
X118524000Y-112897000D01*
X118524000Y-113097000D01*
X120524000Y-113097000D01*
X120524000Y-114097000D01*
X117524000Y-114097000D01*
X117524000Y-105897000D01*
X120524000Y-105897000D01*
X120524000Y-106897000D01*
G36*
X120524000Y-106897000D02*
G01*
X118524000Y-106897000D01*
X118524000Y-107097000D01*
X120524000Y-107097000D01*
X120524000Y-108097000D01*
X118524000Y-108097000D01*
X118524000Y-108297000D01*
X120524000Y-108297000D01*
X120524000Y-109297000D01*
X118524000Y-109297000D01*
X118524000Y-109497000D01*
X120524000Y-109497000D01*
X120524000Y-110497000D01*
X118524000Y-110497000D01*
X118524000Y-110697000D01*
X120524000Y-110697000D01*
X120524000Y-111697000D01*
X118524000Y-111697000D01*
X118524000Y-111897000D01*
X120524000Y-111897000D01*
X120524000Y-112897000D01*
X118524000Y-112897000D01*
X118524000Y-113097000D01*
X120524000Y-113097000D01*
X120524000Y-114097000D01*
X117524000Y-114097000D01*
X117524000Y-105897000D01*
X120524000Y-105897000D01*
X120524000Y-106897000D01*
G37*
%TD*%
D12*
%TO.C,J5*%
X33274000Y-59690000D03*
D13*
X30734000Y-59690000D03*
X33274000Y-57150000D03*
X30734000Y-57150000D03*
X33274000Y-54610000D03*
X30734000Y-54610000D03*
X33274000Y-52070000D03*
X30734000Y-52070000D03*
X33274000Y-49530000D03*
X30734000Y-49530000D03*
%TD*%
D14*
%TO.C,C33*%
X102324041Y-48006000D03*
D15*
X107324041Y-48006000D03*
%TD*%
D16*
%TO.C,J2*%
X60800000Y-115726500D03*
X58300000Y-115726500D03*
X55800000Y-115726500D03*
X53300000Y-115726500D03*
X50800000Y-115726500D03*
X48300000Y-115726500D03*
X45800000Y-115726500D03*
X43300000Y-115726500D03*
X40800000Y-115726500D03*
X60800000Y-118726500D03*
X58300000Y-118726500D03*
X55800000Y-118726500D03*
X53300000Y-118726500D03*
X50800000Y-118726500D03*
X48300000Y-118726500D03*
X45800000Y-118726500D03*
X43300000Y-118726500D03*
X40800000Y-118726500D03*
%TD*%
%TO.C,J3*%
X104996000Y-115726500D03*
X102496000Y-115726500D03*
X99996000Y-115726500D03*
X97496000Y-115726500D03*
X94996000Y-115726500D03*
X92496000Y-115726500D03*
X89996000Y-115726500D03*
X87496000Y-115726500D03*
X84996000Y-115726500D03*
X104996000Y-118726500D03*
X102496000Y-118726500D03*
X99996000Y-118726500D03*
X97496000Y-118726500D03*
X94996000Y-118726500D03*
X92496000Y-118726500D03*
X89996000Y-118726500D03*
X87496000Y-118726500D03*
X84996000Y-118726500D03*
%TD*%
D17*
%TO.C,U1*%
X55372000Y-84113500D03*
X55372000Y-81573500D03*
X55372000Y-79033500D03*
X55372000Y-76493500D03*
X55372000Y-73953500D03*
X55372000Y-71413500D03*
X55372000Y-68873500D03*
X55372000Y-66333500D03*
X55372000Y-63793500D03*
X55372000Y-61253500D03*
X55372000Y-58713500D03*
X55372000Y-56173500D03*
X55372000Y-53633500D03*
X55372000Y-51093500D03*
X55372000Y-48553500D03*
X55372000Y-46013500D03*
X55372000Y-43473500D03*
X55372000Y-40933500D03*
X55372000Y-38393500D03*
X55372000Y-35853500D03*
X40132000Y-84113500D03*
X40132000Y-81573500D03*
X40132000Y-79033500D03*
X40132000Y-76493500D03*
X40132000Y-73953500D03*
X40132000Y-71413500D03*
X40132000Y-68873500D03*
X40132000Y-66333500D03*
X40132000Y-63793500D03*
X40132000Y-61253500D03*
X40132000Y-58713500D03*
X40132000Y-56173500D03*
X40132000Y-53633500D03*
X40132000Y-51093500D03*
X40132000Y-48553500D03*
X40132000Y-46013500D03*
X40132000Y-43473500D03*
X40132000Y-40933500D03*
X40132000Y-38393500D03*
X40132000Y-35853500D03*
%TD*%
D14*
%TO.C,C36*%
X88862041Y-48006000D03*
D15*
X93862041Y-48006000D03*
%TD*%
D12*
%TO.C,J6*%
X101346000Y-109220000D03*
D13*
X101346000Y-111760000D03*
X98806000Y-109220000D03*
X98806000Y-111760000D03*
X96266000Y-109220000D03*
X96266000Y-111760000D03*
%TD*%
D14*
%TO.C,C37*%
X115532041Y-48006000D03*
D15*
X120532041Y-48006000D03*
%TD*%
D12*
%TO.C,J4*%
X42662000Y-108961000D03*
D13*
X42662000Y-111501000D03*
X40122000Y-108961000D03*
X40122000Y-111501000D03*
X37582000Y-108961000D03*
X37582000Y-111501000D03*
X35042000Y-108961000D03*
X35042000Y-111501000D03*
%TD*%
D18*
%TO.C,Y1*%
X28702000Y-95160000D03*
X28702000Y-90260000D03*
%TD*%
D12*
%TO.C,J1*%
X32639000Y-39619000D03*
D13*
X32639000Y-42159000D03*
%TD*%
D14*
%TO.C,C1*%
X75400041Y-48006000D03*
D15*
X80400041Y-48006000D03*
%TD*%
D19*
%TO.C,R61*%
X34106000Y-116266000D03*
X31181000Y-116266000D03*
%TD*%
D20*
%TO.C,R70*%
X68767196Y-72350274D03*
X67476726Y-71059804D03*
%TD*%
D21*
%TO.C,R83*%
X50673000Y-42775500D03*
X50673000Y-44600500D03*
%TD*%
%TO.C,R85*%
X64770000Y-42394500D03*
X64770000Y-44219500D03*
%TD*%
D20*
%TO.C,R66*%
X64726081Y-76391389D03*
X63435611Y-75100919D03*
%TD*%
D22*
%TO.C,R79*%
X90170000Y-113307500D03*
X90170000Y-111482500D03*
%TD*%
D23*
%TO.C,Q1*%
X96987000Y-105308000D03*
%TD*%
D24*
%TO.C,C43*%
X29341500Y-115946000D03*
X29341500Y-114046000D03*
%TD*%
D25*
%TO.C,C35*%
X88224000Y-111398500D03*
X88224000Y-113298500D03*
%TD*%
D20*
%TO.C,R72*%
X71461273Y-69656197D03*
X70170803Y-68365727D03*
%TD*%
D26*
%TO.C,C45*%
X64098249Y-70648751D03*
X65441751Y-69305249D03*
%TD*%
D27*
%TO.C,U9*%
X121879000Y-102442500D03*
X121229000Y-102442500D03*
X120579000Y-102442500D03*
X119929000Y-102442500D03*
X119929000Y-98217500D03*
X120579000Y-98217500D03*
X121229000Y-98217500D03*
X121879000Y-98217500D03*
%TD*%
D25*
%TO.C,C44*%
X43180000Y-100142000D03*
X43180000Y-102042000D03*
%TD*%
D28*
%TO.C,R60*%
X32258000Y-111444500D03*
X32258000Y-108519500D03*
%TD*%
D29*
%TO.C,U8*%
X84369000Y-108504500D03*
X85019000Y-108504500D03*
X85669000Y-108504500D03*
X86319000Y-108504500D03*
X86319000Y-112729500D03*
X85669000Y-112729500D03*
X85019000Y-112729500D03*
X84369000Y-112729500D03*
%TD*%
D30*
%TO.C,J7*%
X68036000Y-39642900D03*
X66936000Y-39642900D03*
X65836000Y-39642900D03*
X64736000Y-39642900D03*
X63636000Y-39642900D03*
X62536000Y-39642900D03*
X61436000Y-39642900D03*
X60336000Y-39642900D03*
X59236000Y-39642900D03*
D31*
X58036000Y-39042900D03*
D17*
X68836000Y-29142900D03*
X60836000Y-29142900D03*
D32*
X72636000Y-39142900D03*
D31*
X58036000Y-29542900D03*
X73536000Y-29542900D03*
%TD*%
D20*
%TO.C,R69*%
X67420157Y-73697313D03*
X66129687Y-72406843D03*
%TD*%
%TO.C,R65*%
X66073119Y-75044351D03*
X64782649Y-73753881D03*
%TD*%
D24*
%TO.C,C46*%
X118110000Y-99502000D03*
X118110000Y-97602000D03*
%TD*%
D33*
%TO.C,C39*%
X30292000Y-106680000D03*
X32192000Y-106680000D03*
%TD*%
D34*
%TO.C,R63*%
X45616500Y-105918000D03*
X43791500Y-105918000D03*
%TD*%
D28*
%TO.C,R59*%
X29972000Y-111444500D03*
X29972000Y-108519500D03*
%TD*%
D25*
%TO.C,C47*%
X62738000Y-42377001D03*
X62738000Y-44276999D03*
%TD*%
D20*
%TO.C,R71*%
X70114235Y-71003235D03*
X68823765Y-69712765D03*
%TD*%
D35*
%TO.C,U7*%
X40446000Y-101409500D03*
X40446000Y-102044500D03*
X40446000Y-102679500D03*
X40446000Y-103314500D03*
X40446000Y-103949500D03*
X40446000Y-104584500D03*
X40446000Y-105219500D03*
X40446000Y-105854500D03*
X35246000Y-105854500D03*
X35246000Y-105219500D03*
X35246000Y-104584500D03*
X35246000Y-103949500D03*
X35246000Y-103314500D03*
X35246000Y-102679500D03*
X35246000Y-102044500D03*
X35246000Y-101409500D03*
%TD*%
D21*
%TO.C,R84*%
X52705000Y-42752000D03*
X52705000Y-44577000D03*
%TD*%
D22*
%TO.C,R80*%
X118110000Y-103020500D03*
X118110000Y-101195500D03*
%TD*%
D34*
%TO.C,R64*%
X45616500Y-103886000D03*
X43791500Y-103886000D03*
%TD*%
D22*
%TO.C,R67*%
X63881000Y-81811500D03*
X63881000Y-79986500D03*
%TD*%
D21*
%TO.C,R82*%
X48641000Y-42775500D03*
X48641000Y-44600500D03*
%TD*%
D19*
%TO.C,R62*%
X34106000Y-113980000D03*
X31181000Y-113980000D03*
%TD*%
D36*
%TO.C,Q2*%
X119024000Y-105197000D03*
%TD*%
D21*
%TO.C,R81*%
X46609000Y-42775500D03*
X46609000Y-44600500D03*
%TD*%
D22*
%TO.C,R68*%
X61976000Y-81811500D03*
X61976000Y-79986500D03*
%TD*%
D37*
%TO.C,R86*%
X36195000Y-113726500D03*
X36195000Y-116651500D03*
%TD*%
M02*
